<svg width="1016" height="107" viewBox="0 0 1016 107" fill="none" xmlns="http://www.w3.org/2000/svg">
<path d="M0 79.3613L8.87189 76.9281C12.241 91.303 20.776 98.1909 35.5999 98.1909C49.6377 98.1909 58.0229 90.442 58.0229 79.0244C58.0229 67.6069 52.5201 62.7029 38.9315 58.6226L29.4981 55.815C13.4014 51.0233 3.55624 43.1995 3.55624 26.9903C3.55624 10.7812 15.3854 0 35.7496 0C53.6431 0 64.4242 7.71152 68.1676 26.0919L58.6593 28.2257C56.0763 14.2626 48.2526 8.08587 35.3004 8.08587C20.9257 8.08587 13.5886 14.7867 13.5886 26.616C13.5886 37.3597 19.3909 43.0123 32.1934 46.9055L41.6268 49.788C59.1459 55.1037 67.9055 61.8794 67.9055 78.388C67.9055 94.8967 55.2154 106.239 35.3378 106.239C15.4603 106.239 4.19262 98.0412 0 79.3613Z" fill="white"/>
<path d="M173.619 10.4441H144.271V104.218H134.576V10.4441H105.152V1.98389H173.619V10.4441Z" fill="white"/>
<path d="M235.76 50.3871C235.76 45.5581 239.653 41.7397 244.445 41.7397C249.237 41.7397 253.13 45.5581 253.13 50.3871C253.13 55.2162 249.237 59.0345 244.445 59.0345C239.653 59.0345 235.76 55.2162 235.76 50.3871Z" fill="white"/>
<path d="M384.299 75.73C384.299 94.1853 375.277 104.218 354.988 104.218H318.677V1.98389H351.544C372.432 1.98389 379.919 11.3051 379.919 27.7763C379.919 39.3062 375.464 47.392 366.106 50.3868C378.047 52.7826 384.299 61.9541 384.299 75.73ZM328.485 47.0551H351.956C363.785 47.0551 369.999 41.4399 369.999 28.4501C369.999 16.1716 365.32 10.1072 351.581 10.1072H328.485V47.0551ZM374.304 75.3557C374.304 60.7188 366.667 55.403 354.763 55.403H328.485V96.0944H354.688C368.352 96.0944 374.304 89.3188 374.304 75.3931V75.3557Z" fill="white"/>
<path d="M425.963 1.98389H485.296V10.4441H435.733V47.0177H480.317V55.403H435.733V95.795H485.296V104.255H425.963V1.98389Z" fill="white"/>
<path d="M583.374 104.218L563.758 61.3551H539.464V104.218H529.693V1.98389H564.619C583.636 1.98389 592.92 11.3051 592.92 30.3967C592.92 45.9321 586.331 56.3763 573.379 59.9326L594.417 104.18H583.337L583.374 104.218ZM562.598 53.2693C575.85 53.2693 583 46.0818 583 30.4716C583 15.8347 576.374 10.1446 563.983 10.1446H539.501V53.2693H562.598Z" fill="white"/>
<path d="M633.835 1.98389H647.461L677.558 71.0881C680.515 77.8638 683.36 84.4148 686.954 93.3243H687.066L687.141 1.98389H695.788V104.218H682.125L652.028 35.1135C649.108 28.3753 646.226 21.7868 642.632 12.9148H642.52L642.445 104.255H633.797V1.98389H633.835Z" fill="white"/>
<path d="M789.935 76.0669H749.806L741.046 104.218H730.714L763.02 1.98389H776.721L809.027 104.218H798.695L789.935 76.0669ZM787.315 67.4195L780.914 46.9054C777.282 35.0761 773.951 23.8831 770.02 10.2944H769.721C765.79 23.8831 762.459 35.0761 758.827 46.9054L752.426 67.4195H787.315Z" fill="white"/>
<path d="M898.644 104.218L879.028 61.3551H854.734V104.218H844.963V1.98389H879.889C898.906 1.98389 908.19 11.3051 908.19 30.3967C908.19 45.9321 901.601 56.3763 888.649 59.9326L909.687 104.18H898.607L898.644 104.218ZM877.868 53.2693C891.12 53.2693 898.27 46.0818 898.27 30.4716C898.27 15.8347 891.644 10.1446 879.253 10.1446H854.771V53.2693H877.868Z" fill="white"/>
<path d="M948.881 2.05876L976.358 1.98389C1003.12 1.98389 1015.96 18.0059 1015.96 53.1195C1015.96 88.2332 1003.12 104.18 976.358 104.18H948.881V2.05876ZM976.245 95.8324C994.513 95.8324 1005.74 85.8373 1005.74 53.157C1005.74 20.4766 994.551 10.4067 976.245 10.4067H958.726V95.8324H976.245Z" fill="white"/>
</svg>
