<svg width="68" height="49" viewBox="0 0 68 49" fill="none" xmlns="http://www.w3.org/2000/svg">
<g clip-path="url(#clip0_301_30)">
<path d="M33.8701 48.5101C23.1201 48.5101 12.3601 46.5501 2.13006 42.6401L1.85006 42.5301L1.79006 42.2301C-0.599941 30.3001 -0.599941 18.2101 1.79006 6.28006L1.85006 5.98006L2.13006 5.87006C22.6001 -1.95994 45.1401 -1.95994 65.6101 5.87006L65.8901 5.98006L65.9501 6.28006C68.3401 18.2101 68.3401 30.3001 65.9501 42.2301L65.8901 42.5301L65.6101 42.6401C55.3801 46.5601 44.6201 48.5101 33.8701 48.5101ZM2.81006 41.7201C22.8501 49.3101 44.8901 49.3101 64.9301 41.7201C67.2101 30.1301 67.2101 18.3801 64.9301 6.80006C44.8901 -0.789941 22.8501 -0.789941 2.81006 6.80006C0.530059 18.3801 0.530059 30.1301 2.81006 41.7201Z" fill="white"/>
<path d="M11.8098 27.27L12.8298 26.99C13.2198 28.64 14.1998 29.43 15.8998 29.43C17.5098 29.43 18.4698 28.54 18.4698 27.23C18.4698 25.92 17.8398 25.35 16.2798 24.89L15.1998 24.57C13.3498 24.02 12.2198 23.12 12.2198 21.26C12.2198 19.4 13.5798 18.16 15.9098 18.16C17.9698 18.16 19.1998 19.04 19.6298 21.16L18.5398 21.4C18.2498 19.8 17.3498 19.09 15.8598 19.09C14.2098 19.09 13.3698 19.86 13.3698 21.22C13.3698 22.46 14.0398 23.1 15.4998 23.55L16.5798 23.88C18.5898 24.49 19.5998 25.27 19.5998 27.16C19.5998 29.05 18.1398 30.36 15.8598 30.36C13.5798 30.36 12.2798 29.42 11.7998 27.28L11.8098 27.27Z" fill="white"/>
<path d="M31.7496 19.36H28.3796V30.13H27.2696V19.36H23.8896V18.39H31.7496V19.36Z" fill="white"/>
<path d="M38.8799 23.9401C38.8799 23.3901 39.3299 22.9501 39.8799 22.9501C40.4299 22.9501 40.8799 23.3901 40.8799 23.9401C40.8799 24.4901 40.4299 24.9301 39.8799 24.9301C39.3299 24.9301 38.8799 24.4901 38.8799 23.9401Z" fill="white"/>
<path d="M55.9299 26.85C55.9299 28.97 54.8899 30.12 52.5699 30.12H48.3999V18.38H52.1699C54.5699 18.38 55.4299 19.45 55.4299 21.34C55.4299 22.66 54.9199 23.59 53.8399 23.93C55.2099 24.2 55.9299 25.26 55.9299 26.84V26.85ZM49.5199 23.56H52.2099C53.5699 23.56 54.2799 22.91 54.2799 21.43C54.2799 20.02 53.7399 19.32 52.1699 19.32H49.5199V23.56ZM54.7799 26.81C54.7799 25.13 53.8999 24.52 52.5399 24.52H49.5199V29.19H52.5299C54.0999 29.19 54.7799 28.41 54.7799 26.81Z" fill="white"/>
</g>
<defs>
<clipPath id="clip0_301_30">
<rect width="67.74" height="48.51" fill="white"/>
</clipPath>
</defs>
</svg>
