<svg width="1009" height="107" viewBox="0 0 1009 107" fill="none" xmlns="http://www.w3.org/2000/svg">
<path d="M0.615234 2.02136H33.8193C56.0926 2.02136 64.5527 12.6153 64.5527 30.9957C64.5527 49.3761 54.9322 62.1038 33.5198 62.1038H10.3481V104.218H0.615234V1.98389V2.02136ZM33.4824 53.7933C48.1192 53.7933 54.6327 45.8573 54.6327 31.0332C54.6327 17.7439 48.8678 10.4441 33.7819 10.4441H10.3481V53.8308H33.5198L33.4824 53.7933Z" fill="white"/>
<path d="M158.063 104.256L138.448 61.393H114.153V104.256H104.383V2.02173H139.309C158.325 2.02173 167.609 11.3429 167.609 30.4346C167.609 45.9699 161.021 56.4142 148.068 59.9705L169.106 104.218H158.026L158.063 104.256ZM137.287 53.3072C150.539 53.3072 157.689 46.1197 157.689 30.5469C157.689 15.9099 151.063 10.2199 138.672 10.2199H114.191V53.3445H137.287V53.3072Z" fill="white"/>
<path d="M202.984 53.0823C202.984 19.5784 215.862 0 239.558 0C263.253 0 276.131 19.5784 276.131 53.0823C276.131 86.5863 263.178 106.239 239.558 106.239C215.937 106.239 202.984 86.5863 202.984 53.0823ZM265.574 53.0823C265.574 23.7336 256.44 8.27313 239.52 8.27313C222.6 8.27313 213.428 23.7336 213.428 53.0823C213.428 82.431 222.562 97.9664 239.52 97.9664C256.478 97.9664 265.574 82.431 265.574 53.0823Z" fill="white"/>
<path d="M315.886 2.02136H349.052C371.326 2.02136 379.786 12.6153 379.786 30.9957C379.786 49.3761 370.165 62.1038 348.753 62.1038H325.581V104.218H315.886V1.98389V2.02136ZM348.753 53.7933C363.39 53.7933 369.903 45.8573 369.903 31.0332C369.903 17.7439 364.138 10.4441 349.052 10.4441H325.581V53.8308H348.753V53.7933Z" fill="white"/>
<path d="M420.963 2.02173H480.296V10.482H430.734V47.0555H475.318V55.4408H430.734V95.7953H480.296V104.256H420.963V2.02173Z" fill="white"/>
<path d="M578.374 104.256L558.758 61.393H534.464V104.256H524.693V2.02173H559.619C578.636 2.02173 587.92 11.3429 587.92 30.4346C587.92 45.9699 581.331 56.4142 568.379 59.9705L589.417 104.218H578.337L578.374 104.256ZM557.598 53.3072C570.85 53.3072 578 46.1197 578 30.5469C578 15.9099 571.374 10.2199 558.983 10.2199H534.501V53.3445H557.598V53.3072Z" fill="white"/>
<path d="M694.045 10.482H664.697V104.256H655.001V10.482H625.578V2.02173H694.045V10.482Z" fill="white"/>
<path d="M733.351 96.3569H760.191V9.92049H733.351V2.02173H796.428V9.92049H769.587V96.3569H796.428V104.256H733.351V96.3569Z" fill="white"/>
<path d="M841.311 2.02173H900.644V10.482H851.081V47.0555H895.665V55.4408H851.081V95.7953H900.644V104.256H841.311V2.02173Z" fill="white"/>
<path d="M940.774 79.3987L949.646 76.9654C953.015 91.3777 961.55 98.2657 976.374 98.2657C990.412 98.2657 998.797 90.5167 998.797 79.0992C998.797 67.6816 993.294 62.7778 979.705 58.6974L970.272 55.8898C954.175 51.0607 944.368 43.2368 944.368 27.0277C944.368 10.8185 956.197 0.0373535 976.561 0.0373535C994.454 0.0373535 1005.24 7.74888 1008.98 26.1293L999.471 28.2631C996.888 14.3 989.064 8.12324 976.112 8.12324C961.737 8.12324 954.4 14.824 954.4 26.6533C954.4 37.4345 960.202 43.0497 973.005 46.9429L982.438 49.8253C999.957 55.141 1008.72 61.9167 1008.72 78.4254C1008.72 94.934 996.027 106.277 976.149 106.277C956.272 106.277 944.967 98.0786 940.774 79.3987Z" fill="white"/>
</svg>
