<svg width="80" height="56" viewBox="0 0 80 56" fill="none" xmlns="http://www.w3.org/2000/svg">
<g clip-path="url(#clip0_104_50)">
<path d="M66.7569 17.6727C66.6108 15.5476 66.3978 13.318 66.0874 10.6585L66.7751 10.5809C67.0885 13.2493 67.3016 15.4879 67.4476 17.625L66.7569 17.6697V17.6727Z" fill="#3A0000"/>
<path d="M72.8366 18.4368C72.6662 16.2728 72.435 14.0731 72.1489 11.9061L72.8336 11.8196C73.1227 13.9985 73.3539 16.2072 73.5244 18.386L72.8366 18.4368Z" fill="#3A0000"/>
<path d="M67.055 24.5675C66.9972 21.9917 66.8999 19.7382 66.7568 17.6698L67.4476 17.625C67.5906 19.7024 67.688 21.9678 67.7488 24.5526L67.0581 24.5675H67.055Z" fill="#3A0000"/>
<path d="M73.1686 24.8272C73.1138 22.708 73.0012 20.559 72.8369 18.4368L73.5246 18.3861C73.692 20.5202 73.8046 22.6812 73.8594 24.8093L73.1686 24.8272Z" fill="#3A0000"/>
<path d="M55.3673 16.9564L54.9838 16.9326C53.1824 16.8251 51.2166 16.7326 48.9831 16.652L49.0074 15.9744C51.0919 16.0491 52.942 16.1356 54.643 16.2341C54.5426 13.9299 54.4087 11.5898 54.2444 9.26472C52.5221 9.10056 50.7054 8.96326 48.7031 8.84685L48.7427 8.16931C50.8697 8.29169 52.7868 8.44092 54.6035 8.61703L54.8925 8.64687L54.9139 8.93341C55.0964 11.4824 55.2425 14.0553 55.349 16.5833L55.3642 16.9594L55.3673 16.9564Z" fill="#3A0000"/>
<path d="M54.6612 16.6101C54.5547 14.091 54.4087 11.5241 54.2261 8.98111L54.9168 8.93335C55.0994 11.4823 55.2455 14.0552 55.352 16.5833L54.6612 16.6101Z" fill="#3A0000"/>
<path d="M60.6922 17.0638C60.5583 14.7058 60.3696 12.2942 60.1201 9.68548L60.8078 9.6228C61.0604 12.2404 61.2491 14.6611 61.383 17.028L60.6922 17.0668V17.0638Z" fill="#3A0000"/>
<path d="M67.472 18.0309L67.0612 17.9861C64.925 17.7473 62.944 17.5503 61.0087 17.3832L60.7105 17.3563L60.6953 17.0638C60.5614 14.7058 60.3727 12.2942 60.1232 9.68549L60.0806 9.25867L60.5127 9.31836C62.3537 9.57505 64.3103 9.89144 66.4921 10.2884L66.7447 10.3332L66.7751 10.5809C67.0886 13.2493 67.3016 15.4879 67.4476 17.6249L67.475 18.0309H67.472ZM61.3647 16.7325C63.087 16.8817 64.8489 17.0578 66.7264 17.2668C66.5865 15.3297 66.3887 13.2911 66.1148 10.9092C64.2129 10.566 62.4845 10.2854 60.8504 10.0496C61.0726 12.3956 61.243 14.5894 61.3677 16.7325H61.3647Z" fill="#3A0000"/>
<path d="M61.3831 38.9749L60.6924 38.9361C60.8232 36.6199 60.9145 34.1635 60.9632 31.6354L61.654 31.6473C61.6053 34.1814 61.514 36.6468 61.3831 38.9719V38.9749Z" fill="#3A0000"/>
<path d="M55.3519 39.4167L54.6611 39.3898C54.7676 36.8856 54.8376 34.3277 54.8741 31.7906L55.5649 31.7996C55.5284 34.3426 55.4584 36.9065 55.3519 39.4167Z" fill="#3A0000"/>
<path d="M49.0073 40.0256L48.9829 39.3481C51.0917 39.2735 52.957 39.1869 54.6733 39.0854C54.7676 36.7932 54.8346 34.4621 54.868 32.1429C53.1092 32.1787 51.2286 32.2086 49.1351 32.2324L49.1259 31.5549C51.3595 31.528 53.3496 31.4952 55.2119 31.4564L55.5679 31.4504L55.5618 31.7997C55.5253 34.3427 55.4553 36.9066 55.3488 39.4168L55.3367 39.7212L55.0263 39.7391C53.2187 39.8495 51.2499 39.9421 49.0073 40.0227V40.0256Z" fill="#3A0000"/>
<path d="M67.7459 31.4473L67.0552 31.4324C67.1069 29.1551 67.1069 26.8449 67.0552 24.5705L67.7459 24.5555C67.7977 26.8419 67.7977 29.161 67.7459 31.4503V31.4473Z" fill="#3A0000"/>
<path d="M73.8592 31.1907L73.1685 31.1728C73.2232 29.0745 73.2232 26.9404 73.1685 24.8272L73.8592 24.8093C73.914 26.9315 73.914 29.0775 73.8592 31.1877V31.1907Z" fill="#3A0000"/>
<path d="M60.6709 39.3271L60.6922 38.9361C60.823 36.6199 60.9143 34.1635 60.963 31.6354L60.9691 31.313L61.2978 31.3041C63.2513 31.2474 65.2993 31.1787 67.3868 31.1011L67.755 31.0862L67.7458 31.4473C67.688 34.0321 67.5876 36.2976 67.4446 38.375L67.4263 38.6555L67.1403 38.6884C64.998 38.9271 63.011 39.1271 61.0695 39.2943L60.6739 39.3271H60.6709ZM61.6477 31.9727C61.602 34.253 61.5199 36.4737 61.4043 38.5839C63.1296 38.4317 64.8915 38.2556 66.7751 38.0466C66.8999 36.1543 66.9912 34.1008 67.0459 31.7906C65.1989 31.8592 63.3883 31.9189 61.6477 31.9727Z" fill="#3A0000"/>
<path d="M60.957 31.9936L60.9631 31.6384C61.0088 29.2238 61.0088 26.7763 60.9631 24.3646L60.957 24.0094L61.3191 24.0213C63.2727 24.078 65.3237 24.1467 67.4142 24.2243L67.7398 24.2362L67.7459 24.5556C67.7977 26.8419 67.7977 29.1611 67.7459 31.4504L67.7398 31.7698L67.4142 31.7817C65.3237 31.8593 63.2727 31.9309 61.3191 31.9847L60.957 31.9966V31.9936ZM61.66 24.7078C61.6965 26.8957 61.6965 29.1074 61.66 31.2952C63.4005 31.2444 65.2142 31.1818 67.0613 31.1131C67.1039 29.0447 67.1039 26.9554 67.0613 24.8869C65.2142 24.8183 63.4005 24.7556 61.66 24.7048V24.7078Z" fill="#3A0000"/>
<path d="M42.6475 40.1688V39.8226C42.6748 37.1632 42.6901 34.5097 42.6961 31.9398V31.6026H43.04C45.2218 31.5936 47.2119 31.5757 49.126 31.5548L49.1351 32.2323C47.3215 32.2562 45.4379 32.2712 43.3869 32.2801C43.3808 34.6351 43.3656 37.0557 43.3443 39.4823C45.3405 39.4555 47.1876 39.4107 48.983 39.348L49.0073 40.0255C47.1054 40.0942 45.1397 40.139 43.0004 40.1658H42.6475V40.1688Z" fill="#3A0000"/>
<path d="M12.5249 18.0309L12.5523 17.6249C12.6984 15.5177 12.9174 13.2135 13.2248 10.5809L13.2552 10.3332L13.5078 10.2884C15.6866 9.89144 17.6432 9.57505 19.4872 9.31836L19.9193 9.25867L19.8767 9.68549C19.6242 12.2971 19.4386 14.7088 19.3047 17.0638L19.2895 17.3563L18.9912 17.3832C17.0559 17.5503 15.0749 17.7473 12.9387 17.9861L12.5279 18.0309H12.5249ZM13.8851 10.9063C13.6143 13.2582 13.4104 15.3446 13.2735 17.2638C15.151 17.0549 16.9129 16.8817 18.6352 16.7295C18.76 14.5894 18.9304 12.3956 19.1525 10.0466C17.5184 10.2795 15.79 10.563 13.8882 10.9063H13.8851Z" fill="#3A0000"/>
<path d="M13.2277 45.419C12.9142 42.7447 12.7012 40.5061 12.5552 38.375L13.2459 38.3302C13.392 40.4524 13.605 42.682 13.9184 45.3444L13.2307 45.422L13.2277 45.419Z" fill="#3A0000"/>
<path d="M7.16341 44.1803C6.87433 42.0014 6.64306 39.7927 6.47266 37.6139L7.16037 37.5631C7.33078 39.7271 7.56204 41.9268 7.84808 44.0938L7.16341 44.1803Z" fill="#3A0000"/>
<path d="M12.9447 24.5675L12.2539 24.5526C12.3148 21.9619 12.4121 19.6934 12.5552 17.625L13.2459 17.6698C13.1029 19.7293 13.0055 21.9857 12.9477 24.5675H12.9447Z" fill="#3A0000"/>
<path d="M6.83138 24.8272L6.14062 24.8093C6.1954 22.6782 6.30799 20.5172 6.47535 18.3861L7.16307 18.4368C6.99875 20.559 6.88616 22.708 6.83138 24.8272Z" fill="#3A0000"/>
<path d="M12.2541 31.4474C12.2024 29.1611 12.2024 26.8419 12.2541 24.5526L12.9449 24.5675C12.8932 26.8449 12.8932 29.1551 12.9449 31.4295L12.2541 31.4444V31.4474Z" fill="#3A0000"/>
<path d="M6.14069 31.1907C6.08592 29.0745 6.08592 26.9284 6.14069 24.8123L6.83145 24.8302C6.77667 26.9344 6.77667 29.0685 6.83145 31.1758L6.14069 31.1937V31.1907Z" fill="#3A0000"/>
<path d="M12.5552 38.375C12.4121 36.3066 12.3148 34.0382 12.2539 31.4474L12.9447 31.4325C13.0025 34.0143 13.1029 36.2708 13.2429 38.3303L12.5521 38.375H12.5552Z" fill="#3A0000"/>
<path d="M6.47242 37.614C6.30506 35.4799 6.19247 33.3189 6.1377 31.1908L6.82845 31.1729C6.88323 33.292 6.99582 35.4411 7.16014 37.5632L6.47242 37.614Z" fill="#3A0000"/>
<path d="M48.9827 16.6519C47.0687 16.5833 45.109 16.5385 42.9941 16.5116L43.0033 15.8341C45.1242 15.858 47.09 15.9057 49.0101 15.9744L48.9858 16.6519H48.9827Z" fill="#3A0000"/>
<path d="M48.703 8.84983C46.8529 8.74238 44.8993 8.66776 42.897 8.62896L42.9091 7.95142C44.9206 7.99022 46.8833 8.06484 48.7425 8.17229L48.703 8.84983Z" fill="#3A0000"/>
<path d="M42.9913 16.5147C41.0042 16.4908 38.9928 16.4908 37.0057 16.5147L36.9966 15.8371C38.9867 15.8132 41.0072 15.8132 43.0004 15.8371L42.9913 16.5147Z" fill="#3A0000"/>
<path d="M42.8969 8.62888C40.9738 8.59307 39.0232 8.59307 37.1001 8.62888L37.0879 7.95134C39.0202 7.91254 40.9799 7.91254 42.9122 7.95134L42.9 8.62888H42.8969Z" fill="#3A0000"/>
<path d="M19.3079 17.0639L18.6172 17.0251C18.7511 14.6611 18.9397 12.2405 19.1923 9.61987L19.88 9.68255C19.6275 12.2942 19.4418 14.7059 19.3079 17.0609V17.0639Z" fill="#3A0000"/>
<path d="M25.3387 16.6101L24.6479 16.5833C24.7545 14.0582 24.9005 11.4853 25.0831 8.93335L25.7739 8.98111C25.5913 11.5241 25.4452 14.091 25.3387 16.6101Z" fill="#3A0000"/>
<path d="M31.017 16.6519L30.9927 15.9744C32.9128 15.9057 34.8786 15.861 36.9995 15.8341L37.0087 16.5116C34.8907 16.5355 32.9341 16.5833 31.0201 16.6519H31.017Z" fill="#3A0000"/>
<path d="M31.294 8.84983L31.2544 8.17229C33.1137 8.06484 35.0764 7.99022 37.0878 7.95142L37.1 8.62896C35.0977 8.66776 33.1441 8.74238 31.294 8.84983Z" fill="#3A0000"/>
<path d="M24.6329 16.9564L24.6481 16.5803C24.7546 14.0552 24.9007 11.4823 25.0833 8.93036L25.1046 8.64382L25.3937 8.61397C27.2103 8.43787 29.1274 8.28863 31.2545 8.16626L31.294 8.8438C29.2887 8.9602 27.472 9.0975 25.7527 9.26167C25.5884 11.5838 25.4545 13.9268 25.3541 16.2311C27.0551 16.1326 28.9053 16.046 30.9897 15.9714L31.0141 16.6489C28.7775 16.7295 26.8147 16.8221 25.0133 16.9295L24.6299 16.9534L24.6329 16.9564Z" fill="#3A0000"/>
<path d="M13.243 17.6728L12.5522 17.628C12.6983 15.5208 12.9174 13.2165 13.2247 10.584L13.9125 10.6616C13.6051 13.2822 13.386 15.5775 13.24 17.6758L13.243 17.6728Z" fill="#3A0000"/>
<path d="M7.1633 18.4368L6.47559 18.386C6.64599 16.2102 6.87726 13.9985 7.16634 11.8196L7.85101 11.9061C7.56497 14.0731 7.33371 16.2699 7.1633 18.4368Z" fill="#3A0000"/>
<path d="M43.046 32.2802V31.6026C45.097 31.5937 46.9806 31.5788 48.7881 31.5579C48.8064 29.1939 48.8064 26.8032 48.7881 24.4392C46.9502 24.4183 45.0635 24.4034 43.043 24.3945V23.7169C45.1944 23.7259 47.1875 23.7408 49.135 23.7647H49.4728V24.099C49.4971 26.6838 49.4971 29.3074 49.4728 31.8922V32.2235H49.132C47.2179 32.2503 45.2248 32.2653 43.043 32.2742L43.046 32.2802Z" fill="#3A0000"/>
<path d="M48.7818 32.2384V31.8921C48.8062 29.3103 48.8062 26.6927 48.7818 24.1109V23.7646H49.1318C51.3836 23.7975 53.3737 23.8273 55.2238 23.8661L55.5586 23.8721V24.2004C55.5981 26.7225 55.5981 29.2805 55.5616 31.8026V32.1309L55.2238 32.1369C53.3615 32.1757 51.3684 32.2055 49.1318 32.2354H48.7788L48.7818 32.2384ZM49.4787 24.4541C49.497 26.8121 49.497 29.1969 49.4787 31.5549C51.4384 31.531 53.2124 31.5011 54.8769 31.4683C54.9074 29.1671 54.9074 26.8389 54.8769 24.5377C53.2246 24.5049 51.4505 24.475 49.4787 24.4511V24.4541Z" fill="#3A0000"/>
<path d="M54.8741 24.2093C54.8376 21.6723 54.7676 19.1173 54.6611 16.6101L55.3519 16.5833C55.4584 19.0934 55.5284 21.6573 55.5649 24.2004L54.8741 24.2093Z" fill="#3A0000"/>
<path d="M60.9632 24.3616C60.9145 21.8365 60.8232 19.3801 60.6924 17.0609L61.3831 17.0221C61.514 19.3472 61.6053 21.8126 61.654 24.3467L60.9632 24.3586V24.3616Z" fill="#3A0000"/>
<path d="M55.5648 31.8026L54.874 31.7937C54.9105 29.2775 54.9105 26.7255 54.874 24.2094L55.5648 24.2004C55.6013 26.7226 55.6013 29.2805 55.5648 31.8026Z" fill="#3A0000"/>
<path d="M61.6536 31.6504L60.9629 31.6385C61.0085 29.2238 61.0085 26.7763 60.9629 24.3646L61.6536 24.3527C61.6993 26.7733 61.6993 29.2298 61.6536 31.6534V31.6504Z" fill="#3A0000"/>
<path d="M24.4351 31.8026C24.3986 29.2805 24.3986 26.7226 24.4351 24.2004L25.1259 24.2094C25.0893 26.7255 25.0893 29.2775 25.1259 31.7937L24.4351 31.8026Z" fill="#3A0000"/>
<path d="M18.3462 31.6503C18.3006 29.2297 18.3006 26.7732 18.3462 24.3496L19.037 24.3615C18.9914 26.7762 18.9914 29.2237 19.037 31.6354L18.3462 31.6473V31.6503Z" fill="#3A0000"/>
<path d="M55.5679 24.5496L55.2119 24.5436C53.3648 24.5048 51.3747 24.475 49.1259 24.4451L49.1351 23.7676C51.2408 23.7944 53.1214 23.8243 54.868 23.8571C54.8315 21.538 54.7676 19.2069 54.6733 16.9146C52.957 16.8131 51.0917 16.7265 48.9829 16.6519L49.0073 15.9744C51.2499 16.055 53.2187 16.1475 55.0263 16.2579L55.3367 16.2758L55.3488 16.5803C55.4553 19.0905 55.5253 21.6544 55.5618 24.1974L55.5679 24.5466V24.5496Z" fill="#3A0000"/>
<path d="M67.755 24.9138L67.3868 24.8988C65.2993 24.8212 63.2513 24.7496 61.2978 24.6959L60.9691 24.6869L60.963 24.3646C60.9143 21.8395 60.823 19.383 60.6922 17.0639L60.6709 16.6729L61.0665 16.7057C63.0079 16.8728 64.995 17.0698 67.1372 17.3116L67.4233 17.3444L67.4415 17.625C67.5846 19.7024 67.6819 21.9678 67.7428 24.5526L67.7519 24.9138H67.755ZM61.6477 24.0273C63.3883 24.078 65.1989 24.1407 67.0459 24.2094C66.9881 21.8992 66.8999 19.8456 66.7751 17.9533C64.8915 17.7444 63.1266 17.5683 61.4043 17.4161C61.5199 19.5263 61.602 21.7469 61.6477 24.0273Z" fill="#3A0000"/>
<path d="M36.9538 32.2802C34.769 32.2712 32.7789 32.2563 30.8648 32.2324H30.527V31.8981C30.5027 29.3133 30.5027 26.6897 30.527 24.1049V23.7736H30.8679C32.8154 23.7468 34.8085 23.7289 36.9569 23.7229V24.4004C34.9363 24.4094 33.0527 24.4243 31.2148 24.4452C31.1965 26.8091 31.1965 29.1999 31.2148 31.5639C33.0223 31.5847 34.9059 31.5997 36.9599 31.6086V32.2862L36.9538 32.2802Z" fill="#3A0000"/>
<path d="M31.218 32.2383H30.865C28.6285 32.2055 26.6383 32.1756 24.773 32.1368L24.4383 32.1309V31.8025C24.3987 29.2804 24.3987 26.7225 24.4352 24.2004V23.872L24.773 23.8661C26.6201 23.8273 28.6132 23.7974 30.865 23.7676H31.218V24.1078C31.1937 26.6897 31.1937 29.3073 31.218 31.8891V32.2353V32.2383ZM25.126 31.4653C26.7905 31.4981 28.5645 31.5279 30.5242 31.5518C30.506 29.1939 30.506 26.809 30.5242 24.4511C28.5524 24.475 26.7783 24.5048 25.126 24.5376C25.0955 26.8389 25.0955 29.167 25.126 31.4683V31.4653Z" fill="#3A0000"/>
<path d="M30.9928 40.0256C28.7501 39.945 26.7813 39.8525 24.9738 39.742L24.6634 39.7241L24.6512 39.4197C24.5447 36.9095 24.4747 34.3456 24.4382 31.8026L24.4321 31.4534L24.7882 31.4593C26.6505 31.4981 28.6406 31.528 30.8741 31.5578L30.865 32.2354C28.7714 32.2115 26.8909 32.1816 25.132 32.1458C25.1685 34.465 25.2324 36.7961 25.3268 39.0884C27.043 39.1899 28.9084 39.2764 31.0171 39.351L30.9928 40.0286V40.0256Z" fill="#3A0000"/>
<path d="M19.3292 39.3271L18.9305 39.2943C16.9891 39.1271 15.0021 38.9301 12.8598 38.6884L12.5738 38.6555L12.5555 38.375C12.4125 36.3065 12.3151 34.0381 12.2542 31.4473L12.2451 31.0862L12.6133 31.1011C14.7038 31.1787 16.7518 31.2503 18.7023 31.3041L19.031 31.313L19.0371 31.6354C19.0857 34.2053 19.174 36.5931 19.3079 38.9361L19.3292 39.3271ZM13.225 38.0466C15.1086 38.2556 16.8735 38.4317 18.5958 38.5839C18.4802 36.4558 18.4011 34.2858 18.3524 31.9727C16.6148 31.9219 14.8012 31.8592 12.9541 31.7906C13.0119 34.1068 13.1002 36.1603 13.225 38.0466Z" fill="#3A0000"/>
<path d="M24.6481 39.4167C24.5416 36.9065 24.4716 34.3426 24.4351 31.7996L25.1258 31.7906C25.1623 34.3277 25.2323 36.8826 25.3388 39.3898L24.6481 39.4167Z" fill="#3A0000"/>
<path d="M18.617 38.975C18.4831 36.623 18.3949 34.2262 18.3462 31.6504L19.0369 31.6384C19.0856 34.2083 19.1739 36.5961 19.3078 38.9391L18.617 38.9779V38.975Z" fill="#3A0000"/>
<path d="M37.3495 40.1688H36.9965C34.8573 40.139 32.8915 40.0942 30.9896 40.0255L31.014 39.348C32.8063 39.4137 34.6534 39.4584 36.6526 39.4823C36.6313 37.0527 36.6161 34.6321 36.61 32.2801C34.559 32.2712 32.6754 32.2562 30.8618 32.2323L30.8709 31.5548C32.785 31.5787 34.7751 31.5936 36.9569 31.6026H37.3008V31.9398C37.3099 34.5097 37.3251 37.1632 37.3495 39.8226V40.1688Z" fill="#3A0000"/>
<path d="M49.126 24.4452C47.1785 24.4213 45.1884 24.4064 43.04 24.3974H42.6961V24.0602C42.687 21.4903 42.6718 18.8368 42.6475 16.1774V15.8312H42.9974C45.1184 15.861 47.0841 15.9058 49.0043 15.9744L48.9799 16.652C47.1724 16.5863 45.3253 16.5415 43.3413 16.5177C43.3626 18.9473 43.3778 21.3679 43.3839 23.7199C45.4014 23.7288 47.285 23.7438 49.1321 23.7676L49.1229 24.4452H49.126Z" fill="#3A0000"/>
<path d="M19.043 31.9936L18.6809 31.9816C16.7273 31.9249 14.6763 31.8563 12.5858 31.7787L12.2602 31.7667L12.2541 31.4473C12.2024 29.161 12.2024 26.8419 12.2541 24.5526L12.2602 24.2332L12.5858 24.2213C14.6763 24.1436 16.7273 24.072 18.6809 24.0183L19.043 24.0063L19.0369 24.3615C18.9913 26.7762 18.9913 29.2237 19.0369 31.6354L19.043 31.9906V31.9936ZM12.9388 31.1131C14.7859 31.1817 16.5995 31.2444 18.3401 31.2951C18.3036 29.1073 18.3036 26.8956 18.3401 24.7078C16.5995 24.7585 14.7859 24.8212 12.9388 24.8898C12.8962 26.9583 12.8962 29.0476 12.9388 31.116V31.1131Z" fill="#3A0000"/>
<path d="M40.0001 40.1838C38.9959 40.1838 37.9948 40.1778 36.9997 40.1659H36.662V39.8316C36.6346 37.1692 36.6194 34.5157 36.6133 31.9459H37.304C37.3101 34.4083 37.3253 36.9453 37.3466 39.4943C39.1085 39.5122 40.8917 39.5122 42.6566 39.4943C42.6779 36.9453 42.6932 34.4083 42.6992 31.9429H43.39C43.3809 34.5157 43.3657 37.1692 43.3444 39.8316V40.1629H43.0035C42.0085 40.1778 41.0043 40.1838 40.0032 40.1838H40.0001Z" fill="#3A0000"/>
<path d="M24.4292 24.5496L24.4353 24.2004C24.4718 21.6574 24.5418 19.0935 24.6483 16.5833L24.6605 16.2789L24.9708 16.261C26.7784 16.1505 28.7472 16.058 30.9899 15.9774L31.0142 16.655C28.9054 16.7296 27.0401 16.8161 25.3238 16.9176C25.2295 19.2099 25.1626 21.541 25.1291 23.8602C26.8758 23.8243 28.7563 23.7975 30.8621 23.7706L30.8712 24.4482C28.6224 24.475 26.6323 24.5078 24.7852 24.5467L24.4292 24.5526V24.5496Z" fill="#3A0000"/>
<path d="M30.8739 24.4451L30.8647 23.7676C32.7088 23.7437 34.5924 23.7288 36.6129 23.7198C36.619 21.3649 36.6342 18.9442 36.6555 16.5176C34.6746 16.5445 32.8244 16.5893 31.0169 16.6519L30.9926 15.9744C32.9127 15.9057 34.8784 15.861 36.9994 15.8341H37.3524V16.1744C37.325 18.8338 37.3098 21.4872 37.3037 24.0571V24.3944H36.9598C34.8115 24.4033 32.8214 24.4213 30.8739 24.4421V24.4451Z" fill="#3A0000"/>
<path d="M19.0369 24.3616L18.3462 24.3496C18.3949 21.7738 18.4831 19.377 18.617 17.025L19.3078 17.0638C19.1739 19.4069 19.0856 21.7947 19.0369 24.3645V24.3616Z" fill="#3A0000"/>
<path d="M25.1258 24.2093L24.4351 24.2004C24.4716 21.6573 24.5416 19.0934 24.6481 16.5833L25.3388 16.6101C25.2323 19.1143 25.1623 21.6723 25.1258 24.2093Z" fill="#3A0000"/>
<path d="M12.2451 24.9138L12.2542 24.5526C12.3151 21.9618 12.4125 19.6934 12.5555 17.625L12.5738 17.3444L12.8598 17.3116C15.0021 17.0728 16.9891 16.8728 18.9305 16.7057L19.3292 16.6729L19.3079 17.0639C19.174 19.4069 19.0857 21.7947 19.0371 24.3646L19.031 24.6869L18.7023 24.6959C16.7518 24.7526 14.7038 24.8212 12.6133 24.8988L12.2451 24.9138ZM13.225 17.9533C13.1002 19.8397 13.0089 21.8932 12.9541 24.2094C14.8012 24.1407 16.6148 24.081 18.3524 24.0273C18.398 21.7141 18.4802 19.5442 18.5958 17.4161C16.8735 17.5683 15.1086 17.7444 13.225 17.9533Z" fill="#3A0000"/>
<path d="M42.6992 24.0601C42.6932 21.5977 42.6779 19.0577 42.6566 16.5117C40.8948 16.4938 39.1116 16.4938 37.3466 16.5117C37.3253 19.0607 37.3101 21.5977 37.304 24.0601H36.6133C36.6224 21.4873 36.6376 18.8338 36.6589 16.1714V15.8401H36.9997C38.9898 15.8133 41.0104 15.8133 43.0035 15.8371H43.3413V16.1714C43.3687 18.8338 43.3839 21.4843 43.39 24.0572H42.6992V24.0601Z" fill="#3A0000"/>
<path d="M15.017 53.0629L14.5088 52.9376C12.537 52.457 10.5165 51.8989 8.49895 51.281L8.30116 51.2214L8.2616 51.0214C7.84471 48.8276 7.47347 46.5263 7.16309 44.1803L7.84776 44.0938C8.14597 46.3562 8.502 48.5769 8.90367 50.696C10.6686 51.2333 12.4335 51.7228 14.165 52.1556C13.815 50.0125 13.5077 47.8038 13.2277 45.422L13.9155 45.3444C14.2137 47.9053 14.5484 50.2632 14.9318 52.5555L15.017 53.0629Z" fill="#3A0000"/>
<path d="M31.6686 55.6746C29.8184 55.5314 27.9257 55.3344 26.0512 55.0896L25.7804 55.0538L25.753 54.7881C25.4943 52.2421 25.2692 49.6454 25.0835 47.0666L25.0562 46.6666L25.4639 46.7054C27.2714 46.8815 29.1794 47.0278 31.2973 47.1502L31.2578 47.8277C29.2889 47.7143 27.4997 47.58 25.8047 47.4188C25.9751 49.7678 26.1821 52.1287 26.4164 54.4509C28.1904 54.6777 29.9767 54.8628 31.7264 54.9971L31.6716 55.6716L31.6686 55.6746Z" fill="#3A0000"/>
<path d="M9.04685 51.4482L8.49912 51.2811C6.39946 50.6364 4.3211 49.929 2.32491 49.1798L2.14842 49.1142L2.1119 48.9321C1.69197 46.8726 1.32681 44.7594 1.0286 42.6462L0.955566 42.1328L1.46374 42.2731C3.38387 42.8044 5.38615 43.3058 7.58622 43.8073L7.82053 43.861L7.85096 44.0938C8.16135 46.4279 8.52651 48.7172 8.94339 50.8961L9.0499 51.4512L9.04685 51.4482ZM2.75093 48.6127C4.50673 49.2664 6.32034 49.8872 8.1583 50.4633C7.79619 48.5112 7.47363 46.4816 7.19368 44.4132C5.26747 43.9714 3.49037 43.5297 1.78326 43.0641C2.05713 44.9295 2.37968 46.795 2.74788 48.6157L2.75093 48.6127Z" fill="#3A0000"/>
<path d="M20.8081 54.2748L20.3364 54.1883C18.3889 53.8271 16.4262 53.4063 14.5061 52.9377L14.287 52.8839L14.2504 52.6631C13.864 50.3618 13.5293 47.9919 13.228 45.4191L13.1763 44.9624L13.6358 45.046C15.8145 45.4429 17.759 45.7563 19.5848 46.0101L19.8556 46.0489L19.88 46.3145C20.1417 49.0396 20.4247 51.4901 20.7442 53.8092L20.8081 54.2748ZM14.8956 52.3318C16.5783 52.7377 18.2885 53.1078 19.9956 53.4331C19.7096 51.3199 19.457 49.0903 19.2166 46.6428C17.5916 46.413 15.8663 46.1354 13.9674 45.7951C14.2444 48.0994 14.5487 50.2454 14.8925 52.3318H14.8956Z" fill="#3A0000"/>
<path d="M26.4829 55.1464L26.0508 55.0897C24.1063 54.836 22.1831 54.5316 20.3361 54.1883L20.0926 54.1435L20.0591 53.9018C19.7396 51.5737 19.4536 49.1142 19.1919 46.3802L19.8796 46.3175C20.1322 48.9471 20.406 51.3229 20.7103 53.5705C22.3323 53.8689 24.012 54.1346 25.71 54.3614C25.4696 51.9527 25.2596 49.4993 25.0862 47.0697L25.7769 47.0219C25.9595 49.5918 26.1847 52.1826 26.4433 54.7226L26.4859 55.1494L26.4829 55.1464Z" fill="#3A0000"/>
<path d="M19.9193 46.7442L19.4872 46.6846C17.6523 46.4308 15.6957 46.1115 13.5078 45.7145L13.2552 45.6697L13.2248 45.422C12.9114 42.7477 12.6984 40.5091 12.5523 38.378L12.5249 37.972L12.9357 38.0168C15.0719 38.2556 17.0529 38.4526 18.9882 38.6197L19.2864 38.6466L19.3016 38.9391C19.4355 41.2941 19.6211 43.7058 19.8737 46.3174L19.9163 46.7442H19.9193ZM13.8851 45.0937C15.7931 45.4369 17.5215 45.7205 19.1495 45.9533C18.9273 43.6043 18.7569 41.4105 18.6322 39.2704C16.9098 39.1212 15.148 38.9451 13.2704 38.7361C13.4104 40.6703 13.6082 42.7089 13.8851 45.0937Z" fill="#3A0000"/>
<path d="M7.19367 37.9841L6.76765 37.9244C4.47324 37.605 2.47096 37.2976 0.645169 36.9872L0.380429 36.9424L0.359129 36.6797C-0.121663 30.9191 -0.121663 25.078 0.359129 19.3174L0.380429 19.0547L0.645169 19.01C2.47096 18.6996 4.47324 18.3951 6.76765 18.0728L7.19367 18.0131L7.16019 18.4339C6.99587 20.5352 6.88633 22.6633 6.83155 24.7646V24.8661C6.77678 26.9435 6.77678 29.0507 6.83155 31.1311V31.2325C6.88937 33.3308 6.99892 35.4619 7.16324 37.5632L7.19671 37.9841H7.19367ZM1.02554 36.3633C2.65962 36.6379 4.43672 36.9096 6.43901 37.1931C6.29903 35.3038 6.19861 33.3935 6.14688 31.5042C4.08374 31.4057 2.34924 31.3161 0.739501 31.2266C0.791232 32.9428 0.888607 34.6561 1.02554 36.3633ZM0.721243 30.5461C2.33402 30.6356 4.06852 30.7251 6.12862 30.8236C6.08602 28.9462 6.08602 27.0509 6.12862 25.1735C4.11112 25.269 2.33707 25.3615 0.721243 25.4511C0.678642 27.1494 0.678642 28.8477 0.721243 30.5461ZM1.02554 19.6368C0.888607 21.3441 0.791232 23.0573 0.739501 24.7735C2.35532 24.684 4.12938 24.5915 6.14688 24.496C6.20165 22.6096 6.29903 20.6993 6.43901 18.807C4.43672 19.0906 2.65962 19.3622 1.02554 19.6368Z" fill="#3A0000"/>
<path d="M13.1759 11.0377L13.2276 10.581C13.5289 8.00813 13.8636 5.63824 14.2501 3.33699L14.2866 3.11612L14.5057 3.06239C16.4197 2.59378 18.3824 2.17293 20.333 1.81178L20.8047 1.72522L20.7407 2.19084C20.4212 4.51 20.1382 6.96048 19.8765 9.68557L19.8522 9.95121L19.5814 9.99001C17.7495 10.2437 15.802 10.5601 13.6323 10.9541L13.1729 11.0377H13.1759ZM14.8952 3.6683C14.5483 5.75464 14.244 7.8977 13.9701 10.2049C15.8628 9.86465 17.5852 9.58707 19.2193 9.35724C19.4566 6.90974 19.7122 4.68013 19.9983 2.56692C18.2881 2.89226 16.5779 3.26237 14.8982 3.6683H14.8952Z" fill="#3A0000"/>
<path d="M7.85069 11.9091L7.16602 11.8226C7.4764 9.47357 7.84764 7.17233 8.26453 4.98151L8.30409 4.78154L8.50189 4.72184C10.5133 4.104 12.5338 3.54883 14.5087 3.0653L15.0169 2.93994L14.9317 3.44735C14.5483 5.73964 14.2136 8.0976 13.9153 10.6585L13.2276 10.5809C13.5076 8.19908 13.8149 5.99036 14.1649 3.84731C12.4304 4.2801 10.6624 4.7696 8.90356 5.30685C8.50188 7.42603 8.1489 9.64669 7.84764 11.9091H7.85069Z" fill="#3A0000"/>
<path d="M0.322754 19.7561L0.35927 19.3203C0.526634 17.3265 0.748771 15.3178 1.02873 13.3568L1.05916 13.1389L1.27521 13.0792C3.20446 12.5449 5.21891 12.0405 7.42812 11.5361L7.91195 11.4257L7.84805 11.9092C7.56201 14.0761 7.33074 16.2729 7.16034 18.4398L7.13903 18.7114L6.86517 18.7503C4.57684 19.0696 2.58065 19.3741 0.760943 19.6845L0.322754 19.7591V19.7561ZM1.67992 13.6702C1.43953 15.4073 1.23869 17.1773 1.0835 18.9413C2.71758 18.6697 4.49468 18.3981 6.49392 18.1175C6.64911 16.1893 6.85299 14.2373 7.09948 12.3062C5.17022 12.7509 3.39008 13.1986 1.67992 13.6702Z" fill="#3A0000"/>
<path d="M0.95568 13.8701L1.02871 13.3567C1.32692 11.2376 1.69208 9.12435 2.11201 7.07084L2.14853 6.88877L2.32502 6.8231C4.32426 6.07393 6.40262 5.36654 8.49923 4.72183L9.04697 4.55469L8.94046 5.10985C8.52358 7.28872 8.15538 9.57803 7.84803 11.9121L7.8176 12.1449L7.58329 12.1986C5.38322 12.7001 3.38094 13.2015 1.46081 13.7328L0.952637 13.8731L0.95568 13.8701ZM2.75104 7.38722C2.38284 9.20494 2.06028 11.0674 1.78641 12.9389C3.49353 12.4732 5.27063 12.0315 7.19684 11.5898C7.47375 9.52132 7.79935 7.4887 8.16146 5.53966C6.32654 6.11273 4.50988 6.73356 2.75408 7.39021L2.75104 7.38722Z" fill="#3A0000"/>
<path d="M59.1919 54.2748L59.2558 53.8092C59.5753 51.493 59.8583 49.0395 60.12 46.3144L60.1443 46.0488L60.4152 46.013C62.241 45.7593 64.1854 45.4429 66.3642 45.0489L66.8237 44.9653L66.772 45.422C66.4707 48.0008 66.136 50.3707 65.7495 52.666L65.713 52.8869L65.4939 52.9406C63.5799 53.4092 61.6172 53.8301 59.6636 54.1912L59.1919 54.2778V54.2748ZM60.7834 46.6428C60.546 49.0903 60.2904 51.3199 60.0044 53.4331C61.7145 53.1078 63.4247 52.7376 65.1044 52.3317C65.4513 50.2513 65.7556 48.1053 66.0295 45.7951C64.1307 46.1354 62.4083 46.4129 60.7803 46.6428H60.7834Z" fill="#3A0000"/>
<path d="M19.8796 9.68548L19.1919 9.6228C19.4536 6.88876 19.7396 4.42932 20.0591 2.10121L20.0926 1.85945L20.3361 1.81467C22.1923 1.47143 24.1124 1.16698 26.0508 0.913278L26.4829 0.856567L26.4403 1.28339C26.1816 3.82043 25.9564 6.4112 25.7739 8.98406L25.0831 8.9363C25.2566 6.50074 25.4665 4.05026 25.71 1.64454C24.0181 1.87138 22.3383 2.13703 20.7103 2.4355C20.406 4.68303 20.1322 7.05889 19.8796 9.68846V9.68548Z" fill="#3A0000"/>
<path d="M37.0878 48.0486C35.0825 48.0098 33.1197 47.9351 31.2544 47.8277L31.294 47.1501C33.1502 47.2576 35.1038 47.3322 37.1 47.371L37.0878 48.0486Z" fill="#3A0000"/>
<path d="M37.2276 55.9642C35.4262 55.9164 33.5547 55.8209 31.665 55.6747L31.7198 55.0001C33.5943 55.1464 35.4536 55.2419 37.2428 55.2896L37.2246 55.9672L37.2276 55.9642Z" fill="#3A0000"/>
<path d="M70.9502 51.4483L71.0567 50.8931C71.4736 48.7143 71.8418 46.4249 72.1491 44.0909L72.1796 43.8581L72.4139 43.8043C74.6139 43.3029 76.6162 42.8015 78.5363 42.2702L79.0445 42.1299L78.9715 42.6433C78.6733 44.7624 78.3081 46.8756 77.8882 48.9292L77.8517 49.1112L77.6752 49.1769C75.679 49.9261 73.6006 50.6335 71.501 51.2782L70.9532 51.4453L70.9502 51.4483ZM72.8034 44.4132C72.5265 46.4817 72.2009 48.5143 71.8387 50.4633C73.6767 49.8903 75.4934 49.2664 77.2461 48.6128C77.6143 46.7951 77.9369 44.9326 78.2107 43.0611C76.5036 43.5268 74.7265 43.9685 72.8003 44.4102L72.8034 44.4132Z" fill="#3A0000"/>
<path d="M72.085 44.5773L72.1489 44.0938C72.4349 41.9269 72.6662 39.7301 72.8366 37.5632L72.8579 37.2915L73.1317 37.2527C75.417 36.9334 77.4132 36.6289 79.236 36.3185L79.6742 36.2439L79.6376 36.6797C79.4703 38.6735 79.2481 40.6822 78.9682 42.6432L78.9378 42.8611L78.7217 42.9208C76.7925 43.4551 74.778 43.9595 72.5688 44.4639L72.085 44.5744V44.5773ZM73.503 37.8855C73.3478 39.8137 73.1439 41.7657 72.8974 43.6968C74.8267 43.2521 76.6068 42.8044 78.317 42.3328C78.5574 40.5957 78.7582 38.8257 78.9134 37.0617C77.2793 37.3333 75.5022 37.6049 73.503 37.8855Z" fill="#3A0000"/>
<path d="M64.9829 53.0629L65.0681 52.5555C65.4515 50.2692 65.7863 47.9113 66.0845 45.3444L66.7722 45.422C66.4922 47.8098 66.1849 50.0185 65.8349 52.1556C67.5694 51.7228 69.3374 51.2333 71.0963 50.696C71.4979 48.5769 71.8509 46.3562 72.1522 44.0938L72.8368 44.1803C72.5265 46.5293 72.1552 48.8306 71.7383 51.0214L71.6988 51.2214L71.501 51.281C69.4896 51.8989 67.469 52.4541 65.4941 52.9376L64.986 53.0629H64.9829Z" fill="#3A0000"/>
<path d="M40 48.0784C39.0263 48.0784 38.0556 48.0695 37.0879 48.0516L37.1001 47.374C39.0232 47.4128 40.9738 47.4128 42.8969 47.374L42.9091 48.0516C41.9445 48.0695 40.9707 48.0784 39.997 48.0784H40Z" fill="#3A0000"/>
<path d="M40.0002 56C39.0751 56 38.1501 55.988 37.228 55.9642L37.2463 55.2866C39.0721 55.3344 40.9253 55.3344 42.751 55.2866L42.7693 55.9642C41.8503 55.988 40.9253 56 39.9971 56H40.0002Z" fill="#3A0000"/>
<path d="M42.9121 48.0486L42.8999 47.371C44.8961 47.3322 46.8497 47.2576 48.7059 47.1501L48.7455 47.8277C46.8801 47.9351 44.9174 48.0098 42.9121 48.0486Z" fill="#3A0000"/>
<path d="M42.7692 55.9641L42.751 55.2866C44.5403 55.2418 46.3995 55.1433 48.277 54.9971L48.3318 55.6716C46.4452 55.8179 44.5737 55.9164 42.7692 55.9611V55.9641Z" fill="#3A0000"/>
<path d="M48.3316 55.6747L48.2769 55.0001C50.0266 54.8658 51.8128 54.6808 53.5869 54.4539C53.8212 52.1318 54.0251 49.7679 54.1985 47.4218C52.5036 47.583 50.7143 47.7173 48.7455 47.8307L48.7059 47.1532C50.8238 47.0308 52.7318 46.8846 54.5393 46.7085L54.9471 46.6697L54.9197 47.0696C54.7371 49.6455 54.5119 52.2422 54.2502 54.7912L54.2228 55.0568L53.952 55.0927C52.0775 55.3374 50.1878 55.5344 48.3347 55.6777L48.3316 55.6747Z" fill="#3A0000"/>
<path d="M53.5171 55.1463L53.5597 54.7195C53.8183 52.1795 54.0435 49.5887 54.2261 47.0189L54.9169 47.0666C54.7434 49.4992 54.5334 51.9497 54.2931 54.3584C55.988 54.1315 57.6647 53.8629 59.2927 53.5674C59.597 51.3229 59.8708 48.947 60.1234 46.3145L60.8111 46.3771C60.5464 49.1112 60.2634 51.5736 59.9439 53.8987L59.9104 54.1405L59.667 54.1853C57.8138 54.5285 55.8906 54.8329 53.9522 55.0867L53.5201 55.1434L53.5171 55.1463Z" fill="#3A0000"/>
<path d="M7.91477 44.5773L7.43093 44.4669C5.21869 43.9625 3.20727 43.4581 1.27802 42.9238L1.06197 42.8641L1.03154 42.6432C0.754631 40.6792 0.52945 38.6735 0.365129 36.6797L0.328613 36.2439L0.766803 36.3185C2.58651 36.6259 4.5827 36.9334 6.87103 37.2527L7.14489 37.2915L7.16619 37.5632C7.3366 39.7271 7.56787 41.9269 7.85391 44.0938L7.91781 44.5773H7.91477ZM1.68274 42.3328C3.3929 42.8044 5.17304 43.2521 7.10229 43.6968C6.85581 41.7657 6.65193 39.8137 6.49674 37.8855C4.4975 37.6049 2.7204 37.3333 1.08632 37.0617C1.24151 38.8257 1.4393 40.5957 1.68274 42.3328Z" fill="#3A0000"/>
<path d="M48.7456 47.8278L48.7061 47.1502C50.7114 47.0338 52.528 46.8965 54.2473 46.7324C54.4116 44.4102 54.5455 42.0672 54.646 39.763C52.9419 39.8615 51.0948 39.948 49.0104 40.0226L48.986 39.3451C51.2226 39.2645 53.1853 39.172 54.9868 39.0645L55.3702 39.0406L55.355 39.4167C55.2485 41.9418 55.1024 44.5147 54.9198 47.0667L54.8985 47.3532L54.6094 47.383C52.7928 47.5591 50.8757 47.7084 48.7487 47.8308L48.7456 47.8278Z" fill="#3A0000"/>
<path d="M60.8078 46.3801L60.1201 46.3174C60.3696 43.7057 60.5583 41.2911 60.6922 38.9391L61.383 38.9779C61.2491 41.3388 61.0604 43.7624 60.8078 46.3831V46.3801Z" fill="#3A0000"/>
<path d="M54.9168 47.0667L54.2261 47.0189C54.4087 44.4759 54.5547 41.909 54.6612 39.3899L55.352 39.4168C55.2455 41.9419 55.0994 44.5147 54.9168 47.0667Z" fill="#3A0000"/>
<path d="M66.7722 45.4191L66.0845 45.3414C66.3949 42.682 66.6079 40.4554 66.7539 38.3273L67.4447 38.372C67.2986 40.4793 67.0795 42.7835 66.7722 45.4161V45.4191Z" fill="#3A0000"/>
<path d="M72.837 44.1803L72.1523 44.0938C72.4384 41.9268 72.6696 39.73 72.8401 37.5631L73.5278 37.6139C73.3574 39.7897 73.1261 42.0014 72.837 44.1803Z" fill="#3A0000"/>
<path d="M73.5276 37.614L72.8398 37.5632C73.0042 35.4411 73.1168 33.292 73.1715 31.1729L73.8623 31.1908C73.8075 33.3219 73.6949 35.4828 73.5276 37.614Z" fill="#3A0000"/>
<path d="M67.4447 38.375L66.7539 38.3303C66.8969 36.2648 66.9943 34.0083 67.0521 31.4325L67.7429 31.4474C67.6851 34.0322 67.5846 36.2977 67.4416 38.375H67.4447Z" fill="#3A0000"/>
<path d="M43.0003 40.1658L42.9912 39.4883C45.1243 39.4614 47.084 39.4167 48.9798 39.348L49.0041 40.0256C47.1023 40.0942 45.1365 40.139 42.9973 40.1658H43.0003Z" fill="#3A0000"/>
<path d="M42.9121 48.0486L42.8999 47.371C44.8961 47.3322 46.8497 47.2576 48.7059 47.1501L48.7455 47.8277C46.8801 47.9351 44.9174 48.0098 42.9121 48.0486Z" fill="#3A0000"/>
<path d="M60.0807 46.7442L60.1233 46.3174C60.3728 43.7058 60.5615 41.2911 60.6954 38.9391L60.7106 38.6466L61.0088 38.6197C62.9472 38.4526 64.9251 38.2556 67.0613 38.0168L67.4721 37.972L67.4447 38.378C67.2986 40.4852 67.0795 42.7894 66.7722 45.422L66.7418 45.6697L66.4892 45.7145C64.3013 46.1115 62.3447 46.4279 60.5097 46.6846L60.0776 46.7442H60.0807ZM61.3679 39.2674C61.2431 41.4075 61.0727 43.6013 60.8506 45.9503C62.4786 45.7175 64.21 45.4369 66.1149 45.0907C66.3918 42.7089 66.5866 40.6703 66.7266 38.7332C64.849 38.9421 63.0871 39.1152 61.3648 39.2674H61.3679Z" fill="#3A0000"/>
<path d="M25.0831 47.0667C24.9005 44.5177 24.7545 41.9448 24.6479 39.4168L25.3387 39.3899C25.4452 41.909 25.5913 44.4759 25.7739 47.0189L25.0831 47.0667Z" fill="#3A0000"/>
<path d="M19.1923 46.3801C18.9397 43.7595 18.7511 41.3389 18.6172 38.975L19.3079 38.9362C19.4418 41.2911 19.6275 43.7028 19.88 46.3145L19.1923 46.3772V46.3801Z" fill="#3A0000"/>
<path d="M31.2543 47.8277C29.1273 47.7053 27.2102 47.5561 25.3936 47.38L25.1045 47.3501L25.0832 47.0636C24.9006 44.5146 24.7545 41.9418 24.648 39.4137L24.6328 39.0376L25.0162 39.0615C26.8177 39.1689 28.7804 39.2615 31.017 39.342L30.9926 40.0196C28.9082 39.945 27.0581 39.8584 25.357 39.7599C25.4575 42.0641 25.5914 44.4042 25.7557 46.7293C27.478 46.8935 29.2916 47.0308 31.2969 47.1472L31.2574 47.8247L31.2543 47.8277Z" fill="#3A0000"/>
<path d="M39.9999 40.1837C38.9957 40.1837 37.9946 40.1778 36.9995 40.1658L37.0086 39.4883C38.9957 39.5122 41.0071 39.5122 42.9942 39.4883L43.0033 40.1658C42.0083 40.1778 41.0041 40.1837 40.0029 40.1837H39.9999Z" fill="#3A0000"/>
<path d="M40 48.0784C39.0263 48.0784 38.0556 48.0695 37.0879 48.0516L37.1001 47.374C39.0232 47.4128 40.9738 47.4128 42.8969 47.374L42.9091 48.0516C41.9445 48.0695 40.9707 48.0784 39.997 48.0784H40Z" fill="#3A0000"/>
<path d="M36.9995 40.1658C34.8603 40.139 32.8945 40.0942 30.9927 40.0256L31.017 39.348C32.9158 39.4167 34.8725 39.4614 37.0056 39.4883L36.9965 40.1658H36.9995Z" fill="#3A0000"/>
<path d="M37.0878 48.0486C35.0825 48.0098 33.1197 47.9351 31.2544 47.8277L31.294 47.1501C33.1502 47.2576 35.1038 47.3322 37.1 47.371L37.0878 48.0486Z" fill="#3A0000"/>
<path d="M79.6776 19.756L79.2394 19.6814C77.4197 19.374 75.4204 19.0666 73.1352 18.7472L72.8613 18.7084L72.84 18.4368C72.6696 16.2728 72.4383 14.0731 72.1523 11.9061L72.0884 11.4226L72.5722 11.533C74.7845 12.0375 76.7959 12.5419 78.7251 13.0762L78.9412 13.1359L78.9716 13.3537C79.2485 15.3147 79.4737 17.3235 79.6411 19.3173L79.6776 19.7531V19.756ZM73.5064 18.1144C75.5056 18.395 77.2828 18.6666 78.9168 18.9382C78.7616 17.1742 78.5638 15.4043 78.3204 13.6671C76.6103 13.1956 74.8301 12.7478 72.9009 12.3031C73.1473 14.2342 73.3512 16.1863 73.5064 18.1144Z" fill="#3A0000"/>
<path d="M60.1204 9.68553C59.8678 7.05596 59.597 4.68308 59.2896 2.43257C57.6616 2.1341 55.9819 1.86845 54.29 1.64161C54.5304 4.04733 54.7404 6.49781 54.9169 8.93337L54.2261 8.98113C54.0435 6.40827 53.8183 3.8175 53.5597 1.28046L53.5171 0.853638L53.9492 0.910348C55.8876 1.16405 57.8077 1.46551 59.6639 1.81174L59.9074 1.85652L59.9408 2.09828C60.2603 4.42639 60.5464 6.88882 60.8081 9.61987L60.1204 9.68255V9.68553Z" fill="#3A0000"/>
<path d="M54.9441 9.33338L54.5364 9.29458C52.7289 9.11848 50.8209 8.97222 48.703 8.84985L48.7425 8.17231C50.7114 8.28573 52.5006 8.42004 54.1956 8.58122C54.0252 6.22923 53.8182 3.86829 53.5839 1.54913C51.816 1.32229 50.0328 1.14022 48.2739 1.00292L48.3287 0.328369C50.188 0.471637 52.0777 0.668631 53.946 0.913381L54.2169 0.949198L54.2443 1.21484C54.5029 3.75785 54.7281 6.35459 54.9137 8.93342L54.9411 9.33338H54.9441Z" fill="#3A0000"/>
<path d="M48.703 8.84983C46.8529 8.74238 44.8993 8.66776 42.897 8.62896L42.9091 7.95142C44.9206 7.99022 46.8833 8.06484 48.7425 8.17229L48.703 8.84983Z" fill="#3A0000"/>
<path d="M48.2769 1.00283C46.4024 0.856575 44.5432 0.761063 42.7539 0.713306L42.7722 0.0357666C44.5767 0.0835227 46.445 0.179035 48.3347 0.325288L48.28 0.999843L48.2769 1.00283Z" fill="#3A0000"/>
<path d="M42.8969 8.62888C40.9738 8.59307 39.0232 8.59307 37.1001 8.62888L37.0879 7.95134C39.0202 7.91254 40.9799 7.91254 42.9122 7.95134L42.9 8.62888H42.8969Z" fill="#3A0000"/>
<path d="M42.751 0.713357C40.9253 0.665601 39.0721 0.665601 37.2463 0.713357L37.228 0.0358171C39.066 -0.011939 40.9313 -0.011939 42.7693 0.0358171L42.751 0.713357Z" fill="#3A0000"/>
<path d="M31.294 8.84983L31.2544 8.17229C33.1137 8.06484 35.0764 7.99022 37.0878 7.95142L37.1 8.62896C35.0977 8.66776 33.1441 8.74238 31.294 8.84983Z" fill="#3A0000"/>
<path d="M31.7232 1.00289L31.6685 0.32834C33.5551 0.182087 35.4265 0.0835897 37.231 0.0388184L37.2493 0.716358C35.46 0.761129 33.6008 0.859626 31.7263 1.00588L31.7232 1.00289Z" fill="#3A0000"/>
<path d="M66.8237 11.0376L66.3642 10.954C64.1946 10.56 62.247 10.2437 60.4152 9.98996L60.1443 9.95414L60.12 9.68849C59.8583 6.9664 59.5753 4.51293 59.2558 2.19377L59.1919 1.72815L59.6636 1.81471C61.6172 2.17885 63.5768 2.5997 65.4909 3.06532L65.71 3.11905L65.7465 3.33992C66.1329 5.6352 66.4677 8.00509 66.7689 10.5839L66.8206 11.0406L66.8237 11.0376ZM60.7803 9.35719C62.4114 9.58701 64.1367 9.86758 66.0295 10.2049C65.7526 7.89167 65.4483 5.74862 65.1014 3.66824C63.4247 3.26231 61.7115 2.8922 60.0013 2.56687C60.2874 4.68306 60.5399 6.90969 60.7803 9.35719Z" fill="#3A0000"/>
<path d="M25.0558 9.33338L25.0832 8.93342C25.2688 6.35459 25.4909 3.75785 25.7526 1.21484L25.78 0.949198L26.0508 0.913381C27.9253 0.668631 29.815 0.471637 31.6682 0.328369L31.7229 1.00292C29.9702 1.14022 28.187 1.32229 26.4129 1.54913C26.1786 3.86829 25.9748 6.23222 25.8013 8.58122C27.4962 8.42004 29.2855 8.28573 31.2543 8.17231L31.2939 8.84985C29.176 8.97222 27.268 9.11848 25.4605 9.29458L25.0527 9.33338H25.0558Z" fill="#3A0000"/>
<path d="M79.0445 13.8702L78.5363 13.7299C76.6193 13.1986 74.617 12.6972 72.4139 12.1957L72.1796 12.142L72.1491 11.9092C71.8387 9.5751 71.4736 7.28579 71.0567 5.10692L70.9502 4.55176L71.4979 4.7189C73.6006 5.36361 75.6759 6.071 77.6721 6.82017L77.8486 6.88584L77.8851 7.06791C78.3051 9.12739 78.6702 11.2406 78.9685 13.3538L79.0415 13.8672L79.0445 13.8702ZM72.8034 11.5868C74.7296 12.0286 76.5067 12.4703 78.2138 12.9359C77.9399 11.0705 77.6174 9.20499 77.2492 7.38429C75.4964 6.73063 73.6797 6.1098 71.8418 5.53374C72.2039 7.48577 72.5265 9.51541 72.8064 11.5868H72.8034Z" fill="#3A0000"/>
<path d="M72.1493 11.9091C71.848 9.64669 71.495 7.42603 71.0933 5.30685C69.3314 4.7696 67.5665 4.2801 65.832 3.84731C66.182 5.98439 66.4893 8.19311 66.7693 10.5809L66.0815 10.6585C65.7803 8.08865 65.4486 5.73069 65.0652 3.44735L64.98 2.93994L65.4912 3.0653C67.4661 3.54585 69.4866 4.104 71.4981 4.72184L71.6958 4.78154L71.7354 4.98151C72.1523 7.17233 72.5235 9.47357 72.8339 11.8226L72.1493 11.9091Z" fill="#3A0000"/>
<path d="M72.8033 37.984L72.8368 37.5632C73.0011 35.4619 73.1107 33.3338 73.1654 31.2325V31.134C73.2202 29.0477 73.2202 26.9255 73.1654 24.8302V24.8063C73.1107 22.6961 72.9981 20.556 72.8338 18.4428L72.8003 18.022L73.2263 18.0817C75.5177 18.401 77.523 18.7085 79.3488 19.0189L79.6135 19.0637L79.6348 19.3263C80.1126 25.0869 80.1126 30.9281 79.6348 36.6886L79.6135 36.9513L79.3488 36.9961C77.52 37.3065 75.5177 37.6109 73.2263 37.9333L72.8003 37.993L72.8033 37.984ZM73.8501 31.5041C73.7953 33.3905 73.698 35.3007 73.558 37.1931C75.5603 36.9095 77.3374 36.6379 78.9715 36.3633C79.1084 34.656 79.2058 32.9428 79.2575 31.2265C77.6447 31.3161 75.9102 31.4056 73.8501 31.5041ZM73.8684 25.1734C73.911 27.0538 73.911 28.9521 73.8684 30.8236C75.9315 30.7251 77.666 30.6356 79.2758 30.546C79.3184 28.8477 79.3184 27.1494 79.2758 25.451C77.6599 25.3615 75.8828 25.269 73.8684 25.1734ZM73.8501 24.4929C75.8646 24.5884 77.6417 24.681 79.2575 24.7705C79.2058 23.0543 79.1084 21.341 78.9715 19.6337C77.3374 19.3591 75.5603 19.0875 73.558 18.804C73.698 20.6933 73.7984 22.6036 73.8501 24.4929Z" fill="#3A0000"/>
</g>
<defs>
<clipPath id="clip0_104_50">
<rect width="80" height="56" fill="white"/>
</clipPath>
</defs>
</svg>
